# xmcd
#
# Track frame offsets: 
#        150
#        14150
#        28665
#        42727
#        59430
#        76572
#        91355
#        108302
#        122492
#        139132
#        154257
#        166080
#        183457
#
# Disc length: 2603 seconds
#
# Revision: 1
# Processed by: cddbd v1.5.2PL0 Copyright (c) Steve Scherf et al.
# Submitted via: ExactAudioCopy v0.99pb3
#
DISCID=a80a290d
DTITLE=Various Artist - Memorias Sertanejas Vol 09
DYEAR=1996
DGENRE=Sertanejo
TTITLE0=Tiãao Carreiro e Pardinho - Oi  Paixao
TTITLE1=Tonico e Tinoco - Couro de Boi
TTITLE2=Jaco e Jacozinho - Cavalo Preto
TTITLE3=Pedro Bento e Ze da Estrada - Chitao e Xororo
TTITLE4=Raul Torres e Florencio - Boiada Cuiabana
TTITLE5=Irmas Castro - Beijinho Doce
TTITLE6=Liu e Leu - Rainha do Parana
TTITLE7=Silveira e Silveirinha - Rabo de Galo
TTITLE8=Luizinho, Limeira e Zezinha - Romaria
TTITLE9=Duo Glacial - Poeira
TTITLE10=Carlito, Baduy e Voninho - Desquite de Pobre eh Briga
TTITLE11=Nalva Aguiar - Coracao Redomao
TTITLE12=Zilo e Zalo - Licao de Caboclo
EXTD=
EXTT0=
EXTT1=
EXTT2=
EXTT3=
EXTT4=
EXTT5=
EXTT6=
EXTT7=
EXTT8=
EXTT9=
EXTT10=
EXTT11=
EXTT12=
PLAYORDER=
